<svg width="799" height="551" viewBox="0 0 799 551" fill="none" xmlns="http://www.w3.org/2000/svg">
<g filter="url(#filter0_d_67_11)">
<path d="M125.66 101.006C130.016 97.196 138.522 85.228 142.812 79.856C154.628 65.064 196.24 10.882 210.198 1H587.746C593.218 4.774 607.018 22.244 612.078 28.328L671.336 101.006C688.254 100.426 709.082 100.998 726.268 101.006C723.626 105.754 703.432 132.786 699.69 136.204C704.288 143.036 710.738 150.87 715.962 157.41L741.45 189.038C752.434 202.576 757.322 208.26 764.576 224.312C771.834 242.588 784.906 261.926 791.28 280.234C795.698 292.924 793.024 354.44 793.026 374.826C793.026 385.908 780.01 400.978 779.11 412.68C778.388 421.506 778.7 433.416 778.708 442.47L778.748 498.048C778.754 513.504 782.606 540.65 759.586 540.77C741.6 540.862 708.042 542.664 690.972 539.98C674.378 537.368 677.266 506.554 677.318 495.002C673.178 494.586 671.05 494.726 666.898 495.002C666.846 500.868 667.256 506.384 666.898 512.324C664.306 512.462 661.814 512.376 659.222 512.324C659.114 506.582 659.196 500.752 659.222 495.002C655.498 494.412 650.74 494.912 646.9 494.934C632.086 495.016 607.846 493.294 593.924 495.002C594.082 507.9 593.932 521.094 593.924 534.014C590.278 534.252 585.472 534.06 581.738 534.014V495.002H217.318C217.134 506.632 217.314 518.77 217.318 530.442H204.714V495.002H114.732C114.782 513.6 114.732 516.114 114.732 516.114C114.224 521.836 117.344 537.966 110.216 538.762C89.5062 541.072 54.4466 539.984 32.8548 538.99C15.946 537.884 19.652 508.67 19.6504 498.102L19.5776 438.356C19.589 433.05 20.1334 414.564 19.204 410.698C13.6466 387.584 4.91542 392.04 5.00062 360.662L5.01141 305.382C4.97241 279.686 6.27422 280.476 17.178 257.29C25.0846 240.478 33.5164 221.65 43.4496 205.982C60.5342 182.538 80.6952 159.892 98.1642 136.204C68.5086 87.952 63.5146 104.952 125.018 101.052L125.66 101.006Z" fill="black"/>
<path d="M587.902 0.5L588.03 0.588867C589.446 1.56521 591.366 3.39954 593.508 5.66309C595.659 7.93582 598.062 10.6709 600.447 13.4736C604.022 17.6737 607.576 22.0458 610.192 25.2471L612.463 28.0078L612.466 28.0117L671.566 100.498C688.451 99.9316 709.188 100.498 726.269 100.506L727.118 100.507L726.705 101.249C725.363 103.66 719.628 111.638 713.791 119.404C710.866 123.296 707.906 127.147 705.441 130.241C703.23 133.018 701.392 135.215 700.341 136.27C704.907 142.997 711.207 150.656 716.352 157.097L741.838 188.723C752.482 201.842 757.436 207.626 764.355 222.625L765.032 224.106L765.037 224.116L765.041 224.128C768.658 233.235 773.725 242.61 778.702 252.027C783.672 261.431 788.551 270.875 791.752 280.069C792.884 283.322 793.546 289.62 793.916 297.478C794.287 305.361 794.368 314.887 794.31 324.646C794.193 344.205 793.525 364.612 793.526 374.826C793.526 377.687 792.688 380.775 791.444 383.952C790.2 387.132 788.533 390.442 786.852 393.747C785.165 397.06 783.464 400.369 782.126 403.579C780.787 406.791 779.827 409.87 779.608 412.719V412.721C778.889 421.519 779.2 433.392 779.208 442.47L779.248 498.048C779.249 499.972 779.309 502.079 779.37 504.303C779.431 506.524 779.493 508.859 779.494 511.227C779.496 515.959 779.258 520.847 778.29 525.267C777.322 529.685 775.614 533.678 772.642 536.575C769.657 539.484 765.45 541.239 759.589 541.27C750.572 541.316 737.758 541.789 724.94 541.916C712.571 542.039 700.27 541.836 691.711 540.597L690.895 540.474C686.57 539.793 683.523 537.267 681.402 533.732C679.291 530.213 678.085 525.68 677.408 520.914C676.091 511.639 676.753 501.281 676.812 495.456C673.16 495.113 671.089 495.225 667.396 495.47C667.368 501.109 667.746 506.565 667.397 512.354L667.37 512.8L666.925 512.823C664.31 512.962 661.794 512.876 659.212 512.824L658.731 512.814L658.723 512.333C658.617 506.729 658.692 501.04 658.72 495.438C657.008 495.209 655.082 495.189 653.117 495.238C651.014 495.291 648.823 495.423 646.903 495.434C639.488 495.475 629.702 495.065 620.067 494.858C610.617 494.656 601.308 494.651 594.428 495.447C594.577 508.206 594.432 521.253 594.424 534.015V534.482L593.957 534.513C590.285 534.752 585.442 534.559 581.732 534.514L581.238 534.508V495.502H217.812C217.64 506.977 217.814 518.924 217.818 530.441V530.942H204.214V495.502H115.233C115.257 504.49 115.257 509.632 115.251 512.533C115.248 514.01 115.243 514.907 115.239 515.435C115.237 515.698 115.236 515.87 115.234 515.976C115.234 516.029 115.233 516.065 115.232 516.089V516.121L115.231 516.123V516.141L115.23 516.158C115.107 517.546 115.203 519.586 115.313 521.932C115.423 524.257 115.544 526.855 115.456 529.303C115.368 531.742 115.072 534.086 114.318 535.885C113.556 537.704 112.292 539.033 110.271 539.259C89.5156 541.574 54.4163 540.483 32.832 539.489H32.8223C28.4231 539.202 25.3493 537.072 23.2422 533.897C21.1509 530.746 20.0148 526.573 19.417 522.161C18.2985 513.906 19.0438 504.563 19.1406 499.134L19.1504 498.103L19.0771 438.356V438.354C19.08 437.024 19.1172 434.869 19.1553 432.332C19.1934 429.793 19.2325 426.866 19.2432 423.985C19.2538 421.104 19.2354 418.271 19.1562 415.921C19.0765 413.552 18.9362 411.723 18.7178 410.814C15.9569 399.332 12.4312 394.75 9.54004 389.004C6.62942 383.219 4.45822 376.406 4.50098 360.66L4.51172 305.382C4.49224 292.541 4.80533 286.247 6.51074 280.258C8.20907 274.293 11.2926 268.63 16.7256 257.077C24.6248 240.281 33.0729 221.415 43.0273 205.714L43.0361 205.7L43.0459 205.688C51.5968 193.954 60.9161 182.422 70.2744 170.87C79.5638 159.404 88.8897 147.916 97.5596 136.178C90.2395 124.292 84.4438 116.408 80.791 111.19C78.9582 108.573 77.6398 106.592 76.958 105.115C76.6176 104.378 76.4115 103.715 76.4062 103.132C76.4008 102.517 76.6199 101.999 77.0869 101.611C77.5257 101.247 78.1456 101.03 78.8848 100.893C79.6322 100.754 80.5596 100.687 81.6641 100.666C83.8717 100.623 86.8759 100.759 90.7236 100.904C98.4334 101.195 109.635 101.526 124.986 100.553L125.452 100.519C127.585 98.6118 130.712 94.7812 133.865 90.7109C137.058 86.5898 140.277 82.23 142.422 79.5439L144.97 76.332C151.667 67.8536 163.392 52.8225 175.315 38.2695C182.13 29.9522 189.015 21.7841 195.071 15.0752C201.116 8.37877 206.368 3.09874 209.909 0.591797L210.039 0.5H587.902Z" stroke="white"/>
</g>
<g filter="url(#filter1_d_67_11)">
<path d="M212.018 3.15796C195.644 13.916 142.874 83.4619 128.68 101.656L72.7711 173.062C69.4809 177.296 50.4351 200.788 50.0767 202.888L50.6347 203.216C65.6795 192.562 92.5002 174.804 108.934 167.282C117.578 144.854 146.506 109.906 161.252 91.108L212.018 25.866C212.008 18.064 211.962 11.2979 212.75 3.50795L212.018 3.15796Z" fill="#580045"/>
<path d="M212.234 2.70679L212.966 3.0564L213.283 3.20874L213.248 3.55835C212.659 9.37838 212.538 14.6246 212.518 20.1775V26.0369L212.413 26.1726L161.647 91.4148L161.646 91.4167C154.266 100.825 143.358 114.248 133.208 128.129C123.053 142.019 113.697 156.316 109.401 167.462L109.328 167.652L109.142 167.737C92.7556 175.237 65.9691 192.969 50.9233 203.624L50.6597 203.81L50.3813 203.647L49.8237 203.319L49.5259 203.144L49.5835 202.803C49.6222 202.577 49.7608 202.293 49.9175 202.01C50.0863 201.706 50.3184 201.332 50.6021 200.902C51.1706 200.04 51.9632 198.925 52.9087 197.64C54.8005 195.07 57.3218 191.8 59.9312 188.467C65.1637 181.783 70.7242 174.882 72.3765 172.756L72.3774 172.754L128.287 101.347C135.379 92.2557 152.126 70.313 169.143 49.3035C177.652 38.7981 186.234 28.5204 193.713 20.1941C201.178 11.8847 207.587 5.47076 211.744 2.73999L211.979 2.58472L212.234 2.70679Z" stroke="white"/>
</g>
<g filter="url(#filter2_d_67_11)">
<path d="M215.258 3.15796C214.068 8.67796 215.364 17.442 215.258 23.942H583.802V3.15796H215.258Z" fill="#580045"/>
<path d="M584.302 2.65796V24.4421H214.75L214.758 23.9333C214.811 20.7034 214.515 16.9242 214.352 13.2048C214.19 9.51468 214.16 5.88317 214.77 3.05249L214.855 2.65796H584.302Z" stroke="white"/>
</g>
<g filter="url(#filter3_d_67_11)">
<path d="M585.682 3.15796C585.588 10.436 585.48 18.63 585.682 25.866C613.052 57.42 643.338 97.6619 667.27 131.41C673.854 140.696 684.484 153.826 689.14 163.57C700.736 170.142 738.278 198.99 748.048 201.278C735.212 186.216 723 169.45 710.65 153.9L602.814 20.488C599.876 16.976 589.694 3.59596 585.682 3.15796Z" fill="#580045"/>
<path d="M585.737 2.66089C586.349 2.72776 587.023 3.03104 587.713 3.45972C588.413 3.89408 589.175 4.48511 589.968 5.18042C591.556 6.57143 593.313 8.41253 595.025 10.3376C598.443 14.181 601.748 18.4342 603.198 20.1667L603.204 20.1736L711.04 153.586L711.042 153.589C723.411 169.164 735.599 185.898 748.429 200.954L749.416 202.112L747.934 201.764C746.651 201.464 744.95 200.739 742.958 199.715C740.958 198.686 738.633 197.338 736.09 195.77C731.004 192.634 725.024 188.603 718.995 184.442C706.914 176.105 694.666 167.276 688.894 164.005L688.757 163.927L688.689 163.786C686.382 158.957 682.583 153.27 678.522 147.61C676.493 144.783 674.404 141.97 672.409 139.28C670.414 136.592 668.512 134.026 666.863 131.699C642.935 97.9575 612.659 57.7298 585.304 26.1931L585.188 26.0583L585.182 25.8796C584.98 18.6316 585.088 10.4265 585.182 3.15112L585.19 2.60132L585.737 2.66089Z" stroke="white"/>
</g>
<g filter="url(#filter4_d_67_11)">
<path d="M674.14 103.108C673.842 106.438 696.962 133.25 699.69 136.204C702.378 129.448 704.32 127.432 708.864 121.628C713.624 115.506 718.114 109.37 722.692 103.108C706.62 103.086 690.182 102.884 674.14 103.108Z" fill="#580045"/>
<path d="M674.133 102.608C690.18 102.384 706.629 102.586 722.693 102.608L723.676 102.61L723.095 103.403C718.518 109.664 714.024 115.806 709.258 121.935L709.257 121.936C704.707 127.748 702.812 129.71 700.155 136.389L699.861 137.126L699.323 136.543C697.949 135.056 691.479 127.605 685.392 120.113C682.348 116.366 679.393 112.6 677.216 109.56C676.129 108.041 675.228 106.693 674.607 105.615C674.297 105.076 674.05 104.593 673.884 104.183C673.727 103.793 673.612 103.398 673.642 103.064L673.682 102.615L674.133 102.608Z" stroke="white"/>
</g>
<g filter="url(#filter5_d_67_11)">
<path d="M78.8511 103.108C83.3447 113.292 93.3343 125.128 100.06 134.288C103.308 130.452 107.312 124.87 110.582 121.628C114.862 115.378 120.16 109.182 124.028 103.108C118.812 103.544 111.346 103.194 105.846 103.146L78.8511 103.108Z" fill="#580045"/>
<path d="M124.45 103.377C122.503 106.433 120.2 109.515 117.858 112.604C115.511 115.698 113.126 118.798 110.995 121.911L110.968 121.95L110.934 121.983C109.322 123.581 107.521 125.766 105.705 128.047C103.897 130.317 102.072 132.685 100.442 134.611L100.033 135.094L99.6577 134.584C97.9797 132.298 96.0971 129.846 94.1431 127.288C92.1905 124.731 90.1673 122.07 88.2134 119.376C84.3094 113.993 80.6632 108.453 78.394 103.31L78.0835 102.607L78.8521 102.608L105.847 102.646H105.851C111.386 102.694 118.801 103.043 123.987 102.61L124.992 102.526L124.45 103.377Z" stroke="white"/>
</g>
<g filter="url(#filter6_d_67_11)">
<path d="M124.028 146.958C117.486 154.472 115.752 159.832 110.582 167.282C124.386 169.46 137.754 172.93 151.334 176.216L233.978 197.064C256.846 202.888 269.832 201.268 293.538 201.264L529.936 201.302C564.502 201.344 612.074 183.574 646.43 174.786C659.616 170.912 674.494 167.454 687.068 163.57C683.972 158.728 679.378 151.408 675.878 146.958H124.028Z" fill="#580045"/>
<path d="M676.121 146.458L676.272 146.648C679.791 151.123 684.402 158.471 687.49 163.301L687.843 163.854L687.216 164.048C680.918 165.993 674.045 167.831 667.107 169.665C660.164 171.5 653.156 173.331 646.572 175.266L646.563 175.269L646.554 175.271C637.975 177.465 628.569 180.221 618.737 183.122C608.907 186.023 598.654 189.068 588.393 191.838C568.521 197.202 548.576 201.544 531.572 201.791L529.936 201.802L293.538 201.764C269.872 201.768 256.8 203.393 233.855 197.549V197.548L151.212 176.701V176.7C137.622 173.412 124.281 169.95 110.504 167.776L109.717 167.651L110.171 166.997C112.742 163.292 114.453 160.118 116.361 156.89C118.267 153.664 120.353 150.418 123.652 146.63L123.801 146.458H676.121Z" stroke="white"/>
</g>
<g filter="url(#filter7_d_67_11)">
<path d="M687.068 167.282C676.072 168.866 666.042 171.886 655.364 174.826L613.324 186.574C596.862 191.13 569.33 197.462 554.652 203.216L728.476 203.154C732.298 203.124 738.864 202.79 742.436 203.216C736.072 198.434 693.556 166.996 687.968 166.902L687.068 167.282Z" fill="#6A0000"/>
<path d="M687.977 166.402C688.417 166.409 688.979 166.565 689.609 166.805C690.253 167.051 691.017 167.405 691.881 167.848C693.609 168.735 695.766 169.999 698.206 171.519C703.088 174.561 709.134 178.655 715.197 182.891C727.326 191.364 739.551 200.422 742.736 202.816L744.223 203.932L742.377 203.713C738.847 203.292 732.352 203.624 728.48 203.654H728.477L554.652 203.716L554.47 202.751C569.179 196.984 596.773 190.636 613.189 186.092L655.229 174.344H655.231C665.872 171.415 675.922 168.389 686.932 166.797L687.773 166.441L687.871 166.4L687.977 166.402Z" stroke="white"/>
</g>
<g filter="url(#filter8_d_67_11)">
<path d="M108.934 170.116C99.0081 173.354 64.8483 196.036 55.5505 203.216H192.928L227.598 203.254C233.104 203.262 240.634 203.538 245.96 203.216C227.698 197.69 122.894 169.562 108.934 170.116Z" fill="#6A0000"/>
<path d="M108.914 169.617C110.719 169.545 113.934 169.934 118.166 170.66C122.414 171.388 127.733 172.465 133.773 173.789C145.855 176.436 160.84 180.074 175.957 183.901C206.188 191.555 236.963 199.971 246.105 202.738L245.99 203.715C240.644 204.039 233.072 203.762 227.597 203.754L192.927 203.716H54.0847L55.2449 202.82C59.9117 199.216 70.791 191.741 81.738 184.766C87.2134 181.277 92.7121 177.909 97.4656 175.209C102.206 172.517 106.243 170.468 108.779 169.641L108.845 169.619L108.914 169.617Z" stroke="white"/>
</g>
<g filter="url(#filter9_d_67_11)">
<path d="M543.026 203.216H246.948C247.174 208.88 247.338 212.796 246.948 218.476H551.924C551.914 213.598 551.778 208.028 551.924 203.216C548.984 203.224 545.956 203.27 543.026 203.216Z" fill="#580045"/>
<path d="M552.424 203.232C552.278 208.033 552.414 213.58 552.424 218.475L552.425 218.976H246.413L246.449 218.442C246.837 212.792 246.674 208.9 246.448 203.235L246.428 202.716H543.035L544.136 202.732C546.711 202.759 549.343 202.723 551.923 202.716L552.439 202.715L552.424 203.232Z" stroke="white"/>
</g>
<g filter="url(#filter10_d_67_11)">
<path d="M640.13 205.902L580.338 205.878C575.098 205.872 558.772 205.368 554.652 205.902V271.63H677.318V205.902C666.804 204.554 651.15 205.918 640.13 205.902Z" fill="#E4FF99"/>
<path d="M677.818 272.13H554.152V205.463L554.588 205.406C556.692 205.133 561.847 205.127 567.081 205.187C572.345 205.247 577.72 205.375 580.339 205.378L640.131 205.402L642.246 205.389C647.294 205.328 653.105 205.053 658.901 204.903C665.507 204.733 672.083 204.727 677.382 205.406L677.818 205.462V272.13Z" stroke="white"/>
</g>
<g filter="url(#filter11_d_67_11)">
<path d="M679.92 205.902V271.63H755.484C744.96 251.818 737.902 226.588 729.014 205.902C724.176 205.482 715.966 205.816 710.792 205.858L679.92 205.902Z" fill="#580045"/>
<path d="M710.789 205.358C715.606 205.319 723.168 205.022 728.107 205.333L729.058 205.404L729.356 205.43L729.474 205.704C733.925 216.063 737.919 227.564 742.105 238.921C746.295 250.289 750.681 261.522 755.926 271.396L756.316 272.13H679.42V205.402H679.919L710.789 205.359V205.358Z" stroke="white"/>
</g>
<g filter="url(#filter12_d_67_11)">
<path d="M732.324 205.902C733.36 213.366 753.848 270.14 760.634 271.63C759.482 256.266 756.922 240.944 755.19 225.692C752.952 205.992 752.322 204.016 732.324 205.902Z" fill="#580045"/>
<path d="M732.277 205.404C737.275 204.933 741.103 204.698 744.058 204.929C747.018 205.161 749.171 205.867 750.757 207.336C752.335 208.797 753.279 210.95 753.973 213.91C754.667 216.87 755.129 220.719 755.688 225.635C757.415 240.847 759.98 256.221 761.133 271.592L761.183 272.262L760.527 272.119C759.969 271.996 759.409 271.61 758.864 271.089C758.309 270.559 757.72 269.842 757.104 268.973C755.873 267.235 754.499 264.841 753.049 262.008C750.147 256.339 746.911 248.853 743.858 241.191C740.805 233.527 737.932 225.676 735.757 219.272C734.669 216.07 733.755 213.228 733.08 210.95C732.408 208.683 731.964 206.946 731.829 205.97L731.757 205.453L732.277 205.404Z" stroke="white"/>
</g>
<g filter="url(#filter13_d_67_11)">
<path d="M53.74 205.902C50.43 207.548 43.5346 211.596 43.0356 215.282C40.6014 233.274 38.9152 253.392 37.8872 271.438L38.4626 272.244C40.775 271.768 42.9256 268.172 44.1738 266.176C45.6686 254.362 60.2478 218.822 64.9442 205.902H53.74Z" fill="#580045"/>
<path d="M65.6577 205.402L65.4146 206.073C63.0746 212.51 58.2306 224.693 53.8276 236.627C51.6194 242.612 49.5127 248.558 47.8657 253.743C46.2157 258.937 45.0369 263.335 44.6694 266.239L44.6558 266.348L44.5981 266.441C43.98 267.43 43.1117 268.858 42.105 270.095C41.1164 271.311 39.9044 272.458 38.563 272.734L38.2446 272.799L38.0562 272.535L37.48 271.728L37.3784 271.586L37.3882 271.41C38.4167 253.355 40.1041 233.223 42.5405 215.214C42.6834 214.16 43.2731 213.13 44.0688 212.173C44.8698 211.211 45.914 210.281 47.0308 209.429C49.2645 207.725 51.8458 206.286 53.5171 205.455L53.6226 205.402H65.6577Z" stroke="white"/>
</g>
<g filter="url(#filter14_d_67_11)">
<path d="M66.5226 205.902C62.051 228.206 50.434 250.596 44.1738 271.63H116.908V205.902H66.5226Z" fill="#580045"/>
<path d="M117.408 205.402V272.13H43.5029L43.6943 271.487C46.8318 260.945 51.3132 250.061 55.5527 239.062C59.7975 228.05 63.8055 216.91 66.0322 205.803L66.1133 205.402H117.408Z" stroke="white"/>
</g>
<g filter="url(#filter15_d_67_11)">
<path d="M119.596 205.902V271.63H244.294V205.902H119.596Z" fill="#E4FF99"/>
<path d="M244.794 205.402V272.13H119.096V205.402H244.794Z" stroke="white"/>
</g>
<g filter="url(#filter16_d_67_11)">
<path d="M756.572 214.778C759.684 242.01 764.37 269.832 764.256 297.208H790.742C790.7 293.246 790.8 284.77 789.338 281.328C786.94 275.682 759.722 217.418 756.572 214.778Z" fill="#580045"/>
<path d="M756.894 214.395C757.156 214.615 757.485 215.061 757.853 215.626C758.234 216.211 758.694 216.985 759.222 217.918C760.277 219.783 761.612 222.305 763.129 225.268C766.164 231.195 769.938 238.907 773.688 246.71C781.185 262.309 788.595 278.297 789.799 281.132C790.569 282.946 790.91 286.012 791.072 289.047C791.236 292.105 791.221 295.232 791.242 297.203L791.248 297.708H763.754L763.756 297.206C763.87 269.869 759.191 242.103 756.075 214.835L755.934 213.59L756.894 214.395Z" stroke="white"/>
</g>
<g filter="url(#filter17_d_67_11)">
<path d="M38.6056 218.476L19.4766 257.994C16.535 264.142 3.45277 290.472 7.44157 297.208C12.2508 297.224 29.6876 297.71 33.7432 297.208C33.4464 284.536 40.5284 225.042 38.6056 218.476Z" fill="#580045"/>
<path d="M39.0852 218.335C39.3495 219.238 39.4458 220.96 39.4368 223.226C39.4277 225.519 39.3092 228.442 39.1145 231.795C38.7251 238.502 38.0289 246.956 37.2825 255.595C35.7871 272.901 34.0959 290.897 34.2434 297.197L34.2532 297.649L33.8049 297.704C31.735 297.961 26.3188 297.962 20.8694 297.902C15.3891 297.841 9.8445 297.716 7.4397 297.708L7.15552 297.707L7.01099 297.462C6.44936 296.514 6.21147 295.266 6.19263 293.848C6.17371 292.423 6.37585 290.78 6.7356 289.004C7.45513 285.453 8.81913 281.308 10.3928 277.202C13.5413 268.986 17.5581 260.845 19.0256 257.778L19.0266 257.776L38.1555 218.258L38.7209 217.09L39.0852 218.335Z" stroke="white"/>
</g>
<g filter="url(#filter18_d_67_11)">
<path d="M246.948 221.15C245.016 224.984 249.318 269.54 245.626 273.838C240.2 274.794 231.054 274.452 225.238 274.434L55.7546 274.382C49.8356 274.366 43.1226 274.02 37.3116 274.396C36.7358 281.552 35.8804 290.088 36.217 297.208H762.1C762.248 289.634 761.404 281.574 762.1 274.396L621.684 274.406C600.02 274.408 573.26 275.158 551.924 274.396V221.15H246.948Z" fill="#580045"/>
<path d="M552.424 220.65V273.912C573.669 274.645 600.16 273.908 621.684 273.906L762.1 273.896H762.651L762.598 274.444C762.253 278 762.289 281.783 762.395 285.64C762.5 289.487 762.674 293.415 762.6 297.217L762.59 297.708H35.7405L35.717 297.232C35.3785 290.071 36.2386 281.492 36.8127 274.356L36.8479 273.925L37.2795 273.897C43.1118 273.52 49.8747 273.867 55.7561 273.882H55.7551L225.239 273.934H225.24C231.03 273.952 239.956 274.281 245.346 273.377C245.479 273.173 245.619 272.866 245.75 272.434C245.912 271.904 246.051 271.23 246.169 270.425C246.405 268.816 246.546 266.729 246.618 264.316C246.764 259.492 246.634 253.413 246.448 247.336C246.261 241.265 246.02 235.191 245.946 230.403C245.909 228.009 245.913 225.924 245.989 224.315C246.026 223.511 246.082 222.816 246.16 222.256C246.237 221.713 246.341 221.244 246.501 220.925L246.64 220.65H552.424Z" stroke="white"/>
</g>
<g filter="url(#filter19_d_67_11)">
<path d="M780.876 299.952H764.256C761.682 342.976 753.22 391.048 746.146 433.47L739.954 469.022C739.362 472.544 736.818 483.222 738.268 485.914C741.58 487.508 743.122 484.97 744.258 482.3C754.828 458.3 765.084 434.208 775.682 410.188C790.19 377.312 790.768 386.988 790.762 350.346L790.742 299.952C787.246 299.852 784.366 299.798 780.876 299.952Z" fill="#580045"/>
<path d="M780.854 299.452C784.363 299.298 787.258 299.352 790.756 299.452L791.242 299.466V299.951L791.262 350.346L791.253 356.69C791.202 370.337 790.879 376.263 789.142 381.828C788.15 385.006 786.701 388.057 784.609 392.34C782.776 396.093 780.44 400.813 777.458 407.434L776.139 410.39C770.841 422.398 765.629 434.425 760.418 446.45C755.21 458.473 750.002 470.495 744.717 482.494L744.718 482.495C744.151 483.829 743.442 485.238 742.395 486.093C741.859 486.531 741.228 486.83 740.486 486.896C739.747 486.961 738.939 486.792 738.051 486.365L737.905 486.294L737.828 486.152C737.604 485.736 737.475 485.204 737.404 484.62C737.332 484.03 737.314 483.351 737.336 482.619C737.381 481.155 737.586 479.434 737.851 477.703C738.117 475.97 738.447 474.213 738.747 472.673C739.047 471.126 739.315 469.811 739.461 468.939V468.936L745.654 433.384C752.73 390.952 761.185 342.912 763.757 299.922L763.785 299.452H780.854Z" stroke="white"/>
</g>
<g filter="url(#filter20_d_67_11)">
<path d="M7.44167 299.952L7.40467 349.642C7.39067 374.578 5.15647 375.392 16.3177 398.424C24.4613 415.226 34.1361 431.438 42.4305 448.134C47.3679 458.072 51.1775 484.592 61.9603 486.9C63.2757 481.292 41.2863 355.424 37.9347 331.256C36.6179 321.762 34.5413 309.836 33.7433 299.952H7.44167Z" fill="#580045"/>
<path d="M34.2043 299.452L34.2415 299.912C35.038 309.777 37.1093 321.666 38.4299 331.187L38.7971 333.743C40.8939 347.942 46.797 382.959 52.1907 415.957C55.0666 433.551 57.7973 450.57 59.7268 463.54C60.6915 470.024 61.4569 475.501 61.9397 479.534C62.181 481.549 62.3522 483.21 62.4426 484.457C62.4878 485.08 62.5136 485.607 62.5168 486.025C62.52 486.43 62.5035 486.776 62.4475 487.014L62.3352 487.492L61.8557 487.388C58.9697 486.771 56.6143 484.55 54.636 481.542C52.6522 478.525 50.9952 474.638 49.5325 470.547C48.0692 466.453 46.7885 462.118 45.5715 458.208C44.3496 454.282 43.1963 450.799 41.9827 448.356C37.8404 440.018 33.3529 431.8 28.8782 423.557C24.4051 415.318 19.9449 407.055 15.8674 398.642C10.2844 387.121 8.02132 381.098 7.17505 374.813C6.75274 371.677 6.68485 368.489 6.72192 364.541C6.75911 360.582 6.90104 355.876 6.90454 349.641L6.94165 299.952V299.452H34.2043Z" stroke="white"/>
</g>
<g filter="url(#filter21_d_67_11)">
<path d="M36.217 299.952C37.361 315.83 40.9262 340.268 44.1738 355.868H755.484C755.836 353.998 756.304 351.822 756.572 349.968C758.358 333.548 760.824 316.29 762.1 299.952H36.217Z" fill="#580045"/>
<path d="M762.641 299.452L762.599 299.991C761.322 316.337 758.853 333.628 757.07 350.022L757.069 350.031L757.067 350.04C756.797 351.907 756.324 354.111 755.976 355.961L755.899 356.368H43.7668L43.6848 355.969C40.4332 340.35 36.8638 315.891 35.718 299.988L35.6799 299.452H762.641Z" stroke="white"/>
</g>
<g filter="url(#filter22_d_67_11)">
<path d="M254.474 358.086C246.36 376.628 234.228 398.502 224.9 416.782L211.668 442.61C205.78 454.286 202.51 462.724 192.928 472.028C199.906 470.302 207.838 466.08 214.464 462.962L244.942 448.686C264.214 439.886 265.332 441.538 286.468 441.558L518.644 441.592C550.866 441.18 582.556 470.188 609.082 472.028C593.266 459.392 571.568 412.592 561.518 393.184C555.696 381.938 547.152 369.858 543.026 358.086C514.666 357.766 485.616 358.086 457.212 358.088L254.474 358.086Z" fill="#580045"/>
<path d="M457.212 357.588C485.608 357.586 514.669 357.266 543.032 357.586L543.382 357.59L543.499 357.92C545.546 363.761 548.693 369.691 552.07 375.583C555.438 381.461 559.045 387.319 561.962 392.954C566.999 402.679 574.921 419.204 583.576 434.904C587.901 442.75 592.402 450.376 596.804 456.825C601.213 463.282 605.5 468.526 609.394 471.637L610.646 472.638L609.047 472.527C602.338 472.061 595.326 469.881 588.101 466.901C580.878 463.921 573.402 460.125 565.781 456.416C550.504 448.98 534.627 441.888 518.651 442.092H518.644L286.468 442.058H286.467C275.85 442.048 270.358 441.631 265.07 442.31C259.819 442.984 254.779 444.744 245.15 449.141L214.676 463.414C208.091 466.512 200.089 470.772 193.048 472.513L191.253 472.958L192.58 471.669C202.086 462.438 205.316 454.096 211.222 442.385L211.223 442.382L224.456 416.554C233.796 398.249 245.91 376.409 254.016 357.885L254.147 357.586H254.474L457.212 357.588Z" stroke="white"/>
</g>
<g filter="url(#filter23_d_67_11)">
<path d="M44.1738 358.086L52.9242 410.036C57.4416 436.2 61.779 460.456 64.9442 486.9L710.436 486.874C717.452 486.866 727.832 486.516 734.568 486.9C737.168 473.586 739.16 460.062 741.382 446.674L750.55 391.736C752.152 381.684 753.526 367.42 755.484 358.086H720.216C724.246 362.494 729.75 367.452 731.67 373.222C733.202 377.828 732.59 444.542 732.188 453.164C730.764 483.702 700.452 475.036 676.776 475.036L117.93 475.034C104.988 475.034 91.6442 475.566 78.8018 474.172C60.7274 472.21 66.7658 423.738 66.4998 410.692C66.4116 389.504 60.6886 370.242 78.851 358.086H44.1738Z" fill="#580045"/>
<path d="M80.4971 357.586L79.1289 358.501C70.204 364.474 67.1476 372.173 66.3291 381.048C65.9184 385.5 66.0728 390.243 66.3379 395.217C66.6022 400.177 66.9775 405.371 67 410.682L67.0078 411.322C67.0259 414.654 66.7223 419.869 66.4922 425.857C66.2461 432.263 66.0816 439.588 66.4717 446.561C66.8623 453.542 67.8069 460.129 69.7568 465.077C71.7078 470.028 74.6084 473.214 78.8555 473.675C91.6622 475.065 104.961 474.534 117.931 474.534L676.776 474.536C682.713 474.536 689.078 475.08 695.249 475.414C701.44 475.749 707.449 475.874 712.751 475.058C718.051 474.241 722.594 472.49 725.901 469.114C729.204 465.744 731.336 460.691 731.688 453.141C731.889 448.843 732.143 430.021 732.154 411.687C732.16 402.522 732.106 393.486 731.954 386.454C731.878 382.938 731.778 379.927 731.649 377.654C731.585 376.517 731.514 375.569 731.436 374.837C731.356 374.09 731.272 373.61 731.195 373.38C730.265 370.584 728.457 367.96 726.353 365.466C724.238 362.96 721.891 360.658 719.848 358.423L719.082 357.586H756.1L755.974 358.188C754.999 362.834 754.169 368.716 753.38 374.707C752.592 380.689 751.846 386.78 751.044 391.814L751.043 391.818L741.875 446.755C739.655 460.131 737.66 473.673 735.059 486.996L734.976 487.424L734.54 487.399C728.662 487.064 720.012 487.29 713.221 487.357L710.437 487.374L64.9443 487.399L64.501 487.4L64.4482 486.959C61.2849 460.531 56.9498 436.289 52.4316 410.121V410.119L43.6807 358.169L43.583 357.586H80.4971Z" stroke="white"/>
</g>
<g filter="url(#filter24_d_67_11)">
<path d="M109.178 358.054C87.6541 358.052 69.2333 355.308 69.2583 382.502L69.2873 449.12C69.5719 479.324 88.8001 472.046 113.178 472.048L174.008 472.028C203.464 471.864 206.14 447.694 219.45 422.076L239.542 382.814C243.518 374.978 248.282 366.066 251.75 358.086L109.178 358.054Z" fill="#580045"/>
<path d="M93.8394 357.549C98.603 357.381 103.822 357.553 109.178 357.554L251.75 357.586H252.512L252.208 358.285C248.733 366.284 243.956 375.219 239.988 383.04L239.987 383.042L219.895 422.304L219.894 422.307C216.576 428.693 213.921 434.986 211.334 440.866C208.752 446.736 206.235 452.199 203.204 456.869C200.168 461.545 196.604 465.448 191.916 468.188C187.226 470.929 181.446 472.486 174.011 472.528H174.008L113.178 472.548C107.096 472.548 101.358 473.001 96.0962 473.212C90.8593 473.422 86.098 473.392 82.0776 472.395C78.0351 471.392 74.7191 469.407 72.4126 465.709C70.1196 462.033 68.8591 456.718 68.7876 449.124V449.12L68.7583 382.502C68.752 375.653 69.9066 370.629 72.0259 366.959C74.1527 363.276 77.2261 361.001 80.9634 359.611C84.6856 358.226 89.0697 357.717 93.8394 357.549Z" stroke="white"/>
</g>
<g filter="url(#filter25_d_67_11)">
<path d="M545.044 358.086C553.072 372.172 600.008 467.89 612.796 470.242C628.544 473.136 716.076 475.208 726.268 466.368C732.508 455.272 731.92 382.906 729.722 375.094C727.814 368.308 720.982 363.764 717.162 358.086H545.044Z" fill="#580045"/>
<path d="M717.428 357.586L717.578 357.807C719.461 360.607 722.072 363.107 724.531 365.84C726.964 368.544 729.217 371.449 730.204 374.959C730.494 375.991 730.746 378.025 730.959 380.765C731.175 383.523 731.353 387.042 731.487 391.074C731.754 399.14 731.839 409.273 731.66 419.508C731.48 429.742 731.037 440.086 730.248 448.57C729.853 452.812 729.37 456.597 728.79 459.674C728.212 462.734 727.528 465.149 726.705 466.613L726.662 466.688L726.596 466.746C725.219 467.94 722.625 468.895 719.225 469.679C715.797 470.469 711.456 471.105 706.503 471.607C696.596 472.613 684.19 473.092 671.621 473.205C646.499 473.43 620.634 472.19 612.707 470.733H612.706C611.786 470.564 610.776 469.992 609.706 469.141C608.626 468.282 607.44 467.102 606.167 465.655C603.623 462.761 600.695 458.752 597.528 453.982C591.192 444.441 583.867 431.801 576.698 418.806C569.527 405.808 562.505 392.445 556.776 381.453C551.042 370.453 546.611 361.845 544.61 358.334L544.184 357.586H717.428Z" stroke="white"/>
</g>
<g filter="url(#filter26_d_67_11)">
<path d="M264.296 444.074C255.666 445.794 211.698 466.83 201.914 472.028H534.598C554.248 472.012 575.754 471.536 595.258 472.028C587.404 467.834 539.53 445.65 531.198 444.484C525.764 443.722 512.504 444.022 506.642 444.028L264.296 444.074Z" fill="#580045"/>
<path d="M519.083 443.468C523.804 443.487 528.512 443.603 531.268 443.989C532.362 444.142 534.061 444.631 536.183 445.357C538.316 446.088 540.909 447.069 543.804 448.226C549.595 450.538 556.612 453.555 563.611 456.664C577.602 462.88 591.548 469.48 595.493 471.587L595.245 472.528C575.75 472.037 554.265 472.512 534.599 472.528H201.914L201.68 471.587C206.585 468.981 220.032 462.418 233.328 456.293C239.978 453.23 246.595 450.274 252.091 447.976C257.567 445.686 261.982 444.026 264.198 443.584L264.247 443.574H264.296L506.642 443.528L509.151 443.515C511.953 443.493 515.541 443.453 519.083 443.468Z" stroke="white"/>
</g>
<path d="M422.28 10.0861V18.504H375.218V10.0861H422.28Z" fill="#6A0000" stroke="white" stroke-width="2"/>
<path d="M301.014 282.279L509.067 282.283C516.412 282.285 525.389 282.485 532.918 282.334C532.375 282.506 531.742 282.645 530.997 282.747C529.611 282.938 527.901 283.004 525.777 283C523.656 282.996 521.162 282.924 518.207 282.847C515.258 282.77 511.864 282.689 507.965 282.67H507.96L291.747 282.695H291.745C280.704 282.722 273.633 282.787 269.114 282.358C268.855 282.334 268.605 282.307 268.365 282.279H301.014ZM263.339 265.997C263.335 269.9 263.055 276.613 263.327 280.729C262.974 280.416 262.743 280.061 262.584 279.65C262.282 278.872 262.2 277.805 262.28 276.257C262.361 274.712 262.588 272.866 262.812 270.53C263.257 265.898 263.655 259.652 262.683 251.269C262.003 245.409 261.794 241.418 262.224 238.684C262.436 237.333 262.796 236.349 263.287 235.618C263.314 235.579 263.343 235.541 263.37 235.503L263.339 265.997ZM536.092 234L535.119 233.974C524.288 233.677 512.473 234.006 501.575 233.974H265.301C267.121 233.163 269.863 232.96 273.988 233.006C277.999 233.05 283.404 233.33 289.999 233.342H536.955L536.994 262.453C536.996 268.865 537.062 273.295 536.686 276.412C536.547 277.56 536.352 278.485 536.092 279.235V234Z" fill="#6A0000" stroke="white" stroke-width="2"/>
<path d="M85.8691 367.227C116.669 366.592 149.534 367.238 180.622 367.252H180.623L205.905 367.224H205.91C214.187 367.178 220.078 367.301 224.129 367.924C228.235 368.555 230.064 369.647 230.778 371.17C231.148 371.958 231.284 372.985 231.144 374.367C231.003 375.751 230.594 377.422 229.942 379.446C228.635 383.512 226.438 388.768 223.764 395.693C221.322 402.015 216.281 410.909 211.479 419.853C206.777 428.608 202.279 437.458 200.977 443.674C198.646 447.09 196.771 450.834 194.953 454.316C193.164 457.741 191.43 460.903 189.339 463.435C185.033 463.691 179.022 463.428 174.525 463.424H174.524L84.1943 463.388C80.4852 463.217 78.0721 462.501 76.4893 461.426C74.941 460.374 74.0806 458.905 73.624 456.969C73.1581 454.993 73.1268 452.585 73.2266 449.731C73.3125 447.273 73.4959 444.478 73.5381 441.5L73.5469 440.213L73.5381 414.058L73.5332 413.22C73.4823 408.993 73.0676 404.197 72.7441 399.395C72.397 394.241 72.152 389.054 72.5312 384.371C72.9114 379.676 73.9121 375.605 75.9658 372.611C77.979 369.677 81.0662 367.686 85.8691 367.227Z" fill="#6A0000" stroke="white" stroke-width="2"/>
<path d="M686.515 366.395C692.65 366.049 699.117 365.846 704.999 366.396C710.9 366.948 716.085 368.248 719.744 370.809C723.331 373.319 725.534 377.096 725.417 382.886C725.045 401.587 725.396 420.32 725.268 438.979C725.245 442.305 725.314 445.502 725.177 448.502C725.041 451.493 724.702 454.172 723.9 456.407C723.106 458.62 721.869 460.371 719.935 461.568C717.984 462.776 715.219 463.486 711.257 463.408H711.239L644.128 463.356C635.708 463.347 629.405 463.732 624.639 463.816C619.808 463.902 616.534 463.678 613.82 462.56C611.146 461.458 608.896 459.435 606.265 455.638C603.621 451.822 600.662 446.32 596.527 438.37L580.103 406.114C578.386 402.673 575.82 398.423 573.462 394.136C571.074 389.792 568.863 385.35 567.721 381.339C566.57 377.297 566.579 373.952 568.254 371.576C569.924 369.209 573.497 367.458 580.355 367.228L670.136 367.232C674.594 367.23 680.418 366.738 686.515 366.395Z" fill="#6A0000" stroke="white" stroke-width="2"/>
<defs>
<filter id="filter0_d_67_11" x="0" y="0" width="798.826" height="550.447" filterUnits="userSpaceOnUse" color-interpolation-filters="sRGB">
<feFlood flood-opacity="0" result="BackgroundImageFix"/>
<feColorMatrix in="SourceAlpha" type="matrix" values="0 0 0 0 0 0 0 0 0 0 0 0 0 0 0 0 0 0 127 0" result="hardAlpha"/>
<feOffset dy="4"/>
<feGaussianBlur stdDeviation="2"/>
<feComposite in2="hardAlpha" operator="out"/>
<feColorMatrix type="matrix" values="0 0 0 0 0 0 0 0 0 0 0 0 0 0 0 0 0 0 0.25 0"/>
<feBlend mode="normal" in2="BackgroundImageFix" result="effect1_dropShadow_67_11"/>
<feBlend mode="normal" in="SourceGraphic" in2="effect1_dropShadow_67_11" result="shape"/>
</filter>
<filter id="filter1_d_67_11" x="44.9749" y="2.01245" width="172.841" height="210.393" filterUnits="userSpaceOnUse" color-interpolation-filters="sRGB">
<feFlood flood-opacity="0" result="BackgroundImageFix"/>
<feColorMatrix in="SourceAlpha" type="matrix" values="0 0 0 0 0 0 0 0 0 0 0 0 0 0 0 0 0 0 127 0" result="hardAlpha"/>
<feOffset dy="4"/>
<feGaussianBlur stdDeviation="2"/>
<feComposite in2="hardAlpha" operator="out"/>
<feColorMatrix type="matrix" values="0 0 0 0 0 0 0 0 0 0 0 0 0 0 0 0 0 0 0.25 0"/>
<feBlend mode="normal" in2="BackgroundImageFix" result="effect1_dropShadow_67_11"/>
<feBlend mode="normal" in="SourceGraphic" in2="effect1_dropShadow_67_11" result="shape"/>
</filter>
<filter id="filter2_d_67_11" x="209.752" y="2.15796" width="379.05" height="30.7839" filterUnits="userSpaceOnUse" color-interpolation-filters="sRGB">
<feFlood flood-opacity="0" result="BackgroundImageFix"/>
<feColorMatrix in="SourceAlpha" type="matrix" values="0 0 0 0 0 0 0 0 0 0 0 0 0 0 0 0 0 0 127 0" result="hardAlpha"/>
<feOffset dy="4"/>
<feGaussianBlur stdDeviation="2"/>
<feComposite in2="hardAlpha" operator="out"/>
<feColorMatrix type="matrix" values="0 0 0 0 0 0 0 0 0 0 0 0 0 0 0 0 0 0 0.25 0"/>
<feBlend mode="normal" in2="BackgroundImageFix" result="effect1_dropShadow_67_11"/>
<feBlend mode="normal" in="SourceGraphic" in2="effect1_dropShadow_67_11" result="shape"/>
</filter>
<filter id="filter3_d_67_11" x="580.568" y="2.04443" width="174.215" height="208.901" filterUnits="userSpaceOnUse" color-interpolation-filters="sRGB">
<feFlood flood-opacity="0" result="BackgroundImageFix"/>
<feColorMatrix in="SourceAlpha" type="matrix" values="0 0 0 0 0 0 0 0 0 0 0 0 0 0 0 0 0 0 127 0" result="hardAlpha"/>
<feOffset dy="4"/>
<feGaussianBlur stdDeviation="2"/>
<feComposite in2="hardAlpha" operator="out"/>
<feColorMatrix type="matrix" values="0 0 0 0 0 0 0 0 0 0 0 0 0 0 0 0 0 0 0.25 0"/>
<feBlend mode="normal" in2="BackgroundImageFix" result="effect1_dropShadow_67_11"/>
<feBlend mode="normal" in="SourceGraphic" in2="effect1_dropShadow_67_11" result="shape"/>
</filter>
<filter id="filter4_d_67_11" x="669.137" y="102.003" width="59.5229" height="44.0453" filterUnits="userSpaceOnUse" color-interpolation-filters="sRGB">
<feFlood flood-opacity="0" result="BackgroundImageFix"/>
<feColorMatrix in="SourceAlpha" type="matrix" values="0 0 0 0 0 0 0 0 0 0 0 0 0 0 0 0 0 0 127 0" result="hardAlpha"/>
<feOffset dy="4"/>
<feGaussianBlur stdDeviation="2"/>
<feComposite in2="hardAlpha" operator="out"/>
<feColorMatrix type="matrix" values="0 0 0 0 0 0 0 0 0 0 0 0 0 0 0 0 0 0 0.25 0"/>
<feBlend mode="normal" in2="BackgroundImageFix" result="effect1_dropShadow_67_11"/>
<feBlend mode="normal" in="SourceGraphic" in2="effect1_dropShadow_67_11" result="shape"/>
</filter>
<filter id="filter5_d_67_11" x="73.3159" y="101.943" width="56.6394" height="41.958" filterUnits="userSpaceOnUse" color-interpolation-filters="sRGB">
<feFlood flood-opacity="0" result="BackgroundImageFix"/>
<feColorMatrix in="SourceAlpha" type="matrix" values="0 0 0 0 0 0 0 0 0 0 0 0 0 0 0 0 0 0 127 0" result="hardAlpha"/>
<feOffset dy="4"/>
<feGaussianBlur stdDeviation="2"/>
<feComposite in2="hardAlpha" operator="out"/>
<feColorMatrix type="matrix" values="0 0 0 0 0 0 0 0 0 0 0 0 0 0 0 0 0 0 0.25 0"/>
<feBlend mode="normal" in2="BackgroundImageFix" result="effect1_dropShadow_67_11"/>
<feBlend mode="normal" in="SourceGraphic" in2="effect1_dropShadow_67_11" result="shape"/>
</filter>
<filter id="filter6_d_67_11" x="104.852" y="145.958" width="587.766" height="64.5166" filterUnits="userSpaceOnUse" color-interpolation-filters="sRGB">
<feFlood flood-opacity="0" result="BackgroundImageFix"/>
<feColorMatrix in="SourceAlpha" type="matrix" values="0 0 0 0 0 0 0 0 0 0 0 0 0 0 0 0 0 0 127 0" result="hardAlpha"/>
<feOffset dy="4"/>
<feGaussianBlur stdDeviation="2"/>
<feComposite in2="hardAlpha" operator="out"/>
<feColorMatrix type="matrix" values="0 0 0 0 0 0 0 0 0 0 0 0 0 0 0 0 0 0 0.25 0"/>
<feBlend mode="normal" in2="BackgroundImageFix" result="effect1_dropShadow_67_11"/>
<feBlend mode="normal" in="SourceGraphic" in2="effect1_dropShadow_67_11" result="shape"/>
</filter>
<filter id="filter7_d_67_11" x="550.288" y="165.899" width="199.721" height="46.7505" filterUnits="userSpaceOnUse" color-interpolation-filters="sRGB">
<feFlood flood-opacity="0" result="BackgroundImageFix"/>
<feColorMatrix in="SourceAlpha" type="matrix" values="0 0 0 0 0 0 0 0 0 0 0 0 0 0 0 0 0 0 127 0" result="hardAlpha"/>
<feOffset dy="4"/>
<feGaussianBlur stdDeviation="2"/>
<feComposite in2="hardAlpha" operator="out"/>
<feColorMatrix type="matrix" values="0 0 0 0 0 0 0 0 0 0 0 0 0 0 0 0 0 0 0.25 0"/>
<feBlend mode="normal" in2="BackgroundImageFix" result="effect1_dropShadow_67_11"/>
<feBlend mode="normal" in="SourceGraphic" in2="effect1_dropShadow_67_11" result="shape"/>
</filter>
<filter id="filter8_d_67_11" x="48.6194" y="169.108" width="201.63" height="43.2634" filterUnits="userSpaceOnUse" color-interpolation-filters="sRGB">
<feFlood flood-opacity="0" result="BackgroundImageFix"/>
<feColorMatrix in="SourceAlpha" type="matrix" values="0 0 0 0 0 0 0 0 0 0 0 0 0 0 0 0 0 0 127 0" result="hardAlpha"/>
<feOffset dy="4"/>
<feGaussianBlur stdDeviation="2"/>
<feComposite in2="hardAlpha" operator="out"/>
<feColorMatrix type="matrix" values="0 0 0 0 0 0 0 0 0 0 0 0 0 0 0 0 0 0 0.25 0"/>
<feBlend mode="normal" in2="BackgroundImageFix" result="effect1_dropShadow_67_11"/>
<feBlend mode="normal" in="SourceGraphic" in2="effect1_dropShadow_67_11" result="shape"/>
</filter>
<filter id="filter9_d_67_11" x="241.877" y="202.213" width="315.078" height="25.2628" filterUnits="userSpaceOnUse" color-interpolation-filters="sRGB">
<feFlood flood-opacity="0" result="BackgroundImageFix"/>
<feColorMatrix in="SourceAlpha" type="matrix" values="0 0 0 0 0 0 0 0 0 0 0 0 0 0 0 0 0 0 127 0" result="hardAlpha"/>
<feOffset dy="4"/>
<feGaussianBlur stdDeviation="2"/>
<feComposite in2="hardAlpha" operator="out"/>
<feColorMatrix type="matrix" values="0 0 0 0 0 0 0 0 0 0 0 0 0 0 0 0 0 0 0.25 0"/>
<feBlend mode="normal" in2="BackgroundImageFix" result="effect1_dropShadow_67_11"/>
<feBlend mode="normal" in="SourceGraphic" in2="effect1_dropShadow_67_11" result="shape"/>
</filter>
<filter id="filter10_d_67_11" x="549.652" y="204.306" width="132.666" height="76.3236" filterUnits="userSpaceOnUse" color-interpolation-filters="sRGB">
<feFlood flood-opacity="0" result="BackgroundImageFix"/>
<feColorMatrix in="SourceAlpha" type="matrix" values="0 0 0 0 0 0 0 0 0 0 0 0 0 0 0 0 0 0 127 0" result="hardAlpha"/>
<feOffset dy="4"/>
<feGaussianBlur stdDeviation="2"/>
<feComposite in2="hardAlpha" operator="out"/>
<feColorMatrix type="matrix" values="0 0 0 0 0 0 0 0 0 0 0 0 0 0 0 0 0 0 0.25 0"/>
<feBlend mode="normal" in2="BackgroundImageFix" result="effect1_dropShadow_67_11"/>
<feBlend mode="normal" in="SourceGraphic" in2="effect1_dropShadow_67_11" result="shape"/>
</filter>
<filter id="filter11_d_67_11" x="674.92" y="204.693" width="86.2275" height="75.9373" filterUnits="userSpaceOnUse" color-interpolation-filters="sRGB">
<feFlood flood-opacity="0" result="BackgroundImageFix"/>
<feColorMatrix in="SourceAlpha" type="matrix" values="0 0 0 0 0 0 0 0 0 0 0 0 0 0 0 0 0 0 127 0" result="hardAlpha"/>
<feOffset dy="4"/>
<feGaussianBlur stdDeviation="2"/>
<feComposite in2="hardAlpha" operator="out"/>
<feColorMatrix type="matrix" values="0 0 0 0 0 0 0 0 0 0 0 0 0 0 0 0 0 0 0.25 0"/>
<feBlend mode="normal" in2="BackgroundImageFix" result="effect1_dropShadow_67_11"/>
<feBlend mode="normal" in="SourceGraphic" in2="effect1_dropShadow_67_11" result="shape"/>
</filter>
<filter id="filter12_d_67_11" x="727.19" y="204.34" width="38.542" height="76.5552" filterUnits="userSpaceOnUse" color-interpolation-filters="sRGB">
<feFlood flood-opacity="0" result="BackgroundImageFix"/>
<feColorMatrix in="SourceAlpha" type="matrix" values="0 0 0 0 0 0 0 0 0 0 0 0 0 0 0 0 0 0 127 0" result="hardAlpha"/>
<feOffset dy="4"/>
<feGaussianBlur stdDeviation="2"/>
<feComposite in2="hardAlpha" operator="out"/>
<feColorMatrix type="matrix" values="0 0 0 0 0 0 0 0 0 0 0 0 0 0 0 0 0 0 0.25 0"/>
<feBlend mode="normal" in2="BackgroundImageFix" result="effect1_dropShadow_67_11"/>
<feBlend mode="normal" in="SourceGraphic" in2="effect1_dropShadow_67_11" result="shape"/>
</filter>
<filter id="filter13_d_67_11" x="32.8689" y="204.902" width="37.5029" height="76.4526" filterUnits="userSpaceOnUse" color-interpolation-filters="sRGB">
<feFlood flood-opacity="0" result="BackgroundImageFix"/>
<feColorMatrix in="SourceAlpha" type="matrix" values="0 0 0 0 0 0 0 0 0 0 0 0 0 0 0 0 0 0 127 0" result="hardAlpha"/>
<feOffset dy="4"/>
<feGaussianBlur stdDeviation="2"/>
<feComposite in2="hardAlpha" operator="out"/>
<feColorMatrix type="matrix" values="0 0 0 0 0 0 0 0 0 0 0 0 0 0 0 0 0 0 0.25 0"/>
<feBlend mode="normal" in2="BackgroundImageFix" result="effect1_dropShadow_67_11"/>
<feBlend mode="normal" in="SourceGraphic" in2="effect1_dropShadow_67_11" result="shape"/>
</filter>
<filter id="filter14_d_67_11" x="38.8328" y="204.902" width="83.0754" height="75.728" filterUnits="userSpaceOnUse" color-interpolation-filters="sRGB">
<feFlood flood-opacity="0" result="BackgroundImageFix"/>
<feColorMatrix in="SourceAlpha" type="matrix" values="0 0 0 0 0 0 0 0 0 0 0 0 0 0 0 0 0 0 127 0" result="hardAlpha"/>
<feOffset dy="4"/>
<feGaussianBlur stdDeviation="2"/>
<feComposite in2="hardAlpha" operator="out"/>
<feColorMatrix type="matrix" values="0 0 0 0 0 0 0 0 0 0 0 0 0 0 0 0 0 0 0.25 0"/>
<feBlend mode="normal" in2="BackgroundImageFix" result="effect1_dropShadow_67_11"/>
<feBlend mode="normal" in="SourceGraphic" in2="effect1_dropShadow_67_11" result="shape"/>
</filter>
<filter id="filter15_d_67_11" x="114.596" y="204.902" width="134.698" height="75.728" filterUnits="userSpaceOnUse" color-interpolation-filters="sRGB">
<feFlood flood-opacity="0" result="BackgroundImageFix"/>
<feColorMatrix in="SourceAlpha" type="matrix" values="0 0 0 0 0 0 0 0 0 0 0 0 0 0 0 0 0 0 127 0" result="hardAlpha"/>
<feOffset dy="4"/>
<feGaussianBlur stdDeviation="2"/>
<feComposite in2="hardAlpha" operator="out"/>
<feColorMatrix type="matrix" values="0 0 0 0 0 0 0 0 0 0 0 0 0 0 0 0 0 0 0.25 0"/>
<feBlend mode="normal" in2="BackgroundImageFix" result="effect1_dropShadow_67_11"/>
<feBlend mode="normal" in="SourceGraphic" in2="effect1_dropShadow_67_11" result="shape"/>
</filter>
<filter id="filter16_d_67_11" x="751.294" y="212.402" width="44.4585" height="93.8059" filterUnits="userSpaceOnUse" color-interpolation-filters="sRGB">
<feFlood flood-opacity="0" result="BackgroundImageFix"/>
<feColorMatrix in="SourceAlpha" type="matrix" values="0 0 0 0 0 0 0 0 0 0 0 0 0 0 0 0 0 0 127 0" result="hardAlpha"/>
<feOffset dy="4"/>
<feGaussianBlur stdDeviation="2"/>
<feComposite in2="hardAlpha" operator="out"/>
<feColorMatrix type="matrix" values="0 0 0 0 0 0 0 0 0 0 0 0 0 0 0 0 0 0 0.25 0"/>
<feBlend mode="normal" in2="BackgroundImageFix" result="effect1_dropShadow_67_11"/>
<feBlend mode="normal" in="SourceGraphic" in2="effect1_dropShadow_67_11" result="shape"/>
</filter>
<filter id="filter17_d_67_11" x="1.69165" y="215.705" width="42.2454" height="90.7301" filterUnits="userSpaceOnUse" color-interpolation-filters="sRGB">
<feFlood flood-opacity="0" result="BackgroundImageFix"/>
<feColorMatrix in="SourceAlpha" type="matrix" values="0 0 0 0 0 0 0 0 0 0 0 0 0 0 0 0 0 0 127 0" result="hardAlpha"/>
<feOffset dy="4"/>
<feGaussianBlur stdDeviation="2"/>
<feComposite in2="hardAlpha" operator="out"/>
<feColorMatrix type="matrix" values="0 0 0 0 0 0 0 0 0 0 0 0 0 0 0 0 0 0 0.25 0"/>
<feBlend mode="normal" in2="BackgroundImageFix" result="effect1_dropShadow_67_11"/>
<feBlend mode="normal" in="SourceGraphic" in2="effect1_dropShadow_67_11" result="shape"/>
</filter>
<filter id="filter18_d_67_11" x="31.1411" y="220.15" width="736.061" height="86.058" filterUnits="userSpaceOnUse" color-interpolation-filters="sRGB">
<feFlood flood-opacity="0" result="BackgroundImageFix"/>
<feColorMatrix in="SourceAlpha" type="matrix" values="0 0 0 0 0 0 0 0 0 0 0 0 0 0 0 0 0 0 127 0" result="hardAlpha"/>
<feOffset dy="4"/>
<feGaussianBlur stdDeviation="2"/>
<feComposite in2="hardAlpha" operator="out"/>
<feColorMatrix type="matrix" values="0 0 0 0 0 0 0 0 0 0 0 0 0 0 0 0 0 0 0.25 0"/>
<feBlend mode="normal" in2="BackgroundImageFix" result="effect1_dropShadow_67_11"/>
<feBlend mode="normal" in="SourceGraphic" in2="effect1_dropShadow_67_11" result="shape"/>
</filter>
<filter id="filter19_d_67_11" x="732.828" y="298.856" width="62.9346" height="196.553" filterUnits="userSpaceOnUse" color-interpolation-filters="sRGB">
<feFlood flood-opacity="0" result="BackgroundImageFix"/>
<feColorMatrix in="SourceAlpha" type="matrix" values="0 0 0 0 0 0 0 0 0 0 0 0 0 0 0 0 0 0 127 0" result="hardAlpha"/>
<feOffset dy="4"/>
<feGaussianBlur stdDeviation="2"/>
<feComposite in2="hardAlpha" operator="out"/>
<feColorMatrix type="matrix" values="0 0 0 0 0 0 0 0 0 0 0 0 0 0 0 0 0 0 0.25 0"/>
<feBlend mode="normal" in2="BackgroundImageFix" result="effect1_dropShadow_67_11"/>
<feBlend mode="normal" in="SourceGraphic" in2="effect1_dropShadow_67_11" result="shape"/>
</filter>
<filter id="filter20_d_67_11" x="2.21313" y="298.952" width="64.8037" height="197.131" filterUnits="userSpaceOnUse" color-interpolation-filters="sRGB">
<feFlood flood-opacity="0" result="BackgroundImageFix"/>
<feColorMatrix in="SourceAlpha" type="matrix" values="0 0 0 0 0 0 0 0 0 0 0 0 0 0 0 0 0 0 127 0" result="hardAlpha"/>
<feOffset dy="4"/>
<feGaussianBlur stdDeviation="2"/>
<feComposite in2="hardAlpha" operator="out"/>
<feColorMatrix type="matrix" values="0 0 0 0 0 0 0 0 0 0 0 0 0 0 0 0 0 0 0.25 0"/>
<feBlend mode="normal" in2="BackgroundImageFix" result="effect1_dropShadow_67_11"/>
<feBlend mode="normal" in="SourceGraphic" in2="effect1_dropShadow_67_11" result="shape"/>
</filter>
<filter id="filter21_d_67_11" x="31.1423" y="298.952" width="736.039" height="65.916" filterUnits="userSpaceOnUse" color-interpolation-filters="sRGB">
<feFlood flood-opacity="0" result="BackgroundImageFix"/>
<feColorMatrix in="SourceAlpha" type="matrix" values="0 0 0 0 0 0 0 0 0 0 0 0 0 0 0 0 0 0 127 0" result="hardAlpha"/>
<feOffset dy="4"/>
<feGaussianBlur stdDeviation="2"/>
<feComposite in2="hardAlpha" operator="out"/>
<feColorMatrix type="matrix" values="0 0 0 0 0 0 0 0 0 0 0 0 0 0 0 0 0 0 0.25 0"/>
<feBlend mode="normal" in2="BackgroundImageFix" result="effect1_dropShadow_67_11"/>
<feBlend mode="normal" in="SourceGraphic" in2="effect1_dropShadow_67_11" result="shape"/>
</filter>
<filter id="filter22_d_67_11" x="185.579" y="356.944" width="430.632" height="124.943" filterUnits="userSpaceOnUse" color-interpolation-filters="sRGB">
<feFlood flood-opacity="0" result="BackgroundImageFix"/>
<feColorMatrix in="SourceAlpha" type="matrix" values="0 0 0 0 0 0 0 0 0 0 0 0 0 0 0 0 0 0 127 0" result="hardAlpha"/>
<feOffset dy="4"/>
<feGaussianBlur stdDeviation="2"/>
<feComposite in2="hardAlpha" operator="out"/>
<feColorMatrix type="matrix" values="0 0 0 0 0 0 0 0 0 0 0 0 0 0 0 0 0 0 0.25 0"/>
<feBlend mode="normal" in2="BackgroundImageFix" result="effect1_dropShadow_67_11"/>
<feBlend mode="normal" in="SourceGraphic" in2="effect1_dropShadow_67_11" result="shape"/>
</filter>
<filter id="filter23_d_67_11" x="38.9912" y="357.086" width="721.725" height="138.862" filterUnits="userSpaceOnUse" color-interpolation-filters="sRGB">
<feFlood flood-opacity="0" result="BackgroundImageFix"/>
<feColorMatrix in="SourceAlpha" type="matrix" values="0 0 0 0 0 0 0 0 0 0 0 0 0 0 0 0 0 0 127 0" result="hardAlpha"/>
<feOffset dy="4"/>
<feGaussianBlur stdDeviation="2"/>
<feComposite in2="hardAlpha" operator="out"/>
<feColorMatrix type="matrix" values="0 0 0 0 0 0 0 0 0 0 0 0 0 0 0 0 0 0 0.25 0"/>
<feBlend mode="normal" in2="BackgroundImageFix" result="effect1_dropShadow_67_11"/>
<feBlend mode="normal" in="SourceGraphic" in2="effect1_dropShadow_67_11" result="shape"/>
</filter>
<filter id="filter24_d_67_11" x="64.2583" y="356.976" width="193.017" height="124.841" filterUnits="userSpaceOnUse" color-interpolation-filters="sRGB">
<feFlood flood-opacity="0" result="BackgroundImageFix"/>
<feColorMatrix in="SourceAlpha" type="matrix" values="0 0 0 0 0 0 0 0 0 0 0 0 0 0 0 0 0 0 127 0" result="hardAlpha"/>
<feOffset dy="4"/>
<feGaussianBlur stdDeviation="2"/>
<feComposite in2="hardAlpha" operator="out"/>
<feColorMatrix type="matrix" values="0 0 0 0 0 0 0 0 0 0 0 0 0 0 0 0 0 0 0.25 0"/>
<feBlend mode="normal" in2="BackgroundImageFix" result="effect1_dropShadow_67_11"/>
<feBlend mode="normal" in="SourceGraphic" in2="effect1_dropShadow_67_11" result="shape"/>
</filter>
<filter id="filter25_d_67_11" x="539.324" y="357.086" width="196.931" height="124.646" filterUnits="userSpaceOnUse" color-interpolation-filters="sRGB">
<feFlood flood-opacity="0" result="BackgroundImageFix"/>
<feColorMatrix in="SourceAlpha" type="matrix" values="0 0 0 0 0 0 0 0 0 0 0 0 0 0 0 0 0 0 127 0" result="hardAlpha"/>
<feOffset dy="4"/>
<feGaussianBlur stdDeviation="2"/>
<feComposite in2="hardAlpha" operator="out"/>
<feColorMatrix type="matrix" values="0 0 0 0 0 0 0 0 0 0 0 0 0 0 0 0 0 0 0.25 0"/>
<feBlend mode="normal" in2="BackgroundImageFix" result="effect1_dropShadow_67_11"/>
<feBlend mode="normal" in="SourceGraphic" in2="effect1_dropShadow_67_11" result="shape"/>
</filter>
<filter id="filter26_d_67_11" x="197.445" y="442.965" width="402.284" height="38.0632" filterUnits="userSpaceOnUse" color-interpolation-filters="sRGB">
<feFlood flood-opacity="0" result="BackgroundImageFix"/>
<feColorMatrix in="SourceAlpha" type="matrix" values="0 0 0 0 0 0 0 0 0 0 0 0 0 0 0 0 0 0 127 0" result="hardAlpha"/>
<feOffset dy="4"/>
<feGaussianBlur stdDeviation="2"/>
<feComposite in2="hardAlpha" operator="out"/>
<feColorMatrix type="matrix" values="0 0 0 0 0 0 0 0 0 0 0 0 0 0 0 0 0 0 0.25 0"/>
<feBlend mode="normal" in2="BackgroundImageFix" result="effect1_dropShadow_67_11"/>
<feBlend mode="normal" in="SourceGraphic" in2="effect1_dropShadow_67_11" result="shape"/>
</filter>
</defs>
</svg>
