<svg width="32" height="20" viewBox="0 0 32 20" fill="none" xmlns="http://www.w3.org/2000/svg">
<g clip-path="url(#clip0_2681_5185)">
<path d="M2.70499 0.650891L2.72247 1.28109L15.8664 1.29859C23.0941 1.30443 29.0686 1.29859 29.1443 1.28109C29.2667 1.25191 29.2726 1.22274 29.2726 0.63922V0.026529H15.9829H2.6875L2.70499 0.650891Z" fill="#F74CC3"/>
<path d="M1.40018 1.3511C1.37686 1.36861 1.35938 1.67204 1.35938 2.02215V2.65234H2.00054H2.64171V1.9813V1.31026H2.04134C1.7091 1.31026 1.41766 1.32776 1.40018 1.3511Z" fill="#F74CC3"/>
<path d="M29.3359 1.9813V2.65234H29.9771H30.6183V1.9813V1.31026H29.9771H29.3359V1.9813Z" fill="#F74CC3"/>
<path d="M0.0564265 2.69538C0.0331113 2.71289 0.015625 6.00975 0.015625 10.0185V17.3008H0.656791H1.29796V9.97766V2.65454H0.697592C0.365352 2.65454 0.0739128 2.67204 0.0564265 2.69538Z" fill="#F74CC3"/>
<path d="M2.73611 2.69068C2.7128 2.71402 2.69531 3.01745 2.69531 3.36756V3.99776H3.36562H4.03593V4.6688V5.33984H4.6771H5.31826V4.6688V3.99776H4.68293H4.04759L4.01845 3.8052C4.00096 3.706 3.9893 3.40841 3.9893 3.15166L3.99513 2.68485L3.38894 2.66734C3.05087 2.66151 2.75943 2.67318 2.73611 2.69068Z" fill="#F74CC3"/>
<path d="M27.9922 3.32505V3.99609H28.6334H29.2745V3.32505V2.65401H28.6334H27.9922V3.32505Z" fill="#F74CC3"/>
<path d="M30.6719 9.97766V17.3008H31.313H31.9542V9.97766V2.65454H31.313H30.6719V9.97766Z" fill="#F74CC3"/>
<path d="M26.6971 4.03667C26.6737 4.05418 26.6562 4.35761 26.6562 4.70772V5.34375L27.3091 5.32624L27.9677 5.30874L27.9561 4.92945C27.9502 4.71939 27.9444 4.42763 27.9444 4.27008L27.9386 3.99583H27.3382C27.006 3.99583 26.7145 4.01333 26.6971 4.03667Z" fill="#F74CC3"/>
<path d="M5.375 6.00864V6.67969H6.01617H6.65733V6.00864V5.3376H6.01617H5.375V6.00864Z" fill="#F74CC3"/>
<path d="M25.363 5.38042C25.3513 5.40377 25.3338 5.71303 25.3222 6.0573L25.3047 6.6875L25.9633 6.66999L26.6278 6.65249V6.01062V5.36875L26.0041 5.35125C25.6661 5.34541 25.3746 5.35708 25.363 5.38042Z" fill="#F74CC3"/>
<path d="M6.72842 7.33305L6.74591 7.99242L7.36959 8.00993L7.99327 8.02743L8.01076 8.68097L8.02824 9.33451L8.63443 9.35201C9.08325 9.36368 9.25811 9.34618 9.29309 9.29366C9.3164 9.25282 9.33972 8.94939 9.33972 8.61678V8.0216H8.66941H7.9991V7.35055V6.67951H7.35793H6.71094L6.72842 7.33305Z" fill="#F74CC3"/>
<path d="M24.0312 7.35239V8.02344H24.6025C24.9114 8.02344 25.2028 8.0001 25.2436 7.97676C25.2961 7.94175 25.3136 7.76669 25.3019 7.31738L25.2844 6.71053L24.6608 6.69302L24.0312 6.67552V7.35239Z" fill="#F74CC3"/>
<path d="M22.6875 8.69224V9.36328H23.3287H23.9698V8.69224V8.0212H23.3287H22.6875V8.69224Z" fill="#F74CC3"/>
<path d="M9.34375 10.0066V10.6484H10.0199H10.7019L10.6669 10.1641C10.6436 9.90154 10.6261 9.61561 10.6261 9.52225V9.3647H9.98492H9.34375V10.0066Z" fill="#F74CC3"/>
<path d="M21.3516 10.0066V10.6484H21.9927H22.6339V10.0066V9.3647H21.9927H21.3516V10.0066Z" fill="#F74CC3"/>
<path d="M11.2801 10.687L10.6797 10.7104V11.3464V11.9883H11.3209H11.962V11.3172C11.962 10.9496 11.9445 10.652 11.9212 10.6579C11.8921 10.6637 11.6065 10.6812 11.2801 10.687Z" fill="#F74CC3"/>
<path d="M8.02145 11.3464L8.01562 11.9883H8.68011H9.33876V11.3464V10.7045H8.68593H8.02728L8.02145 11.3464Z" fill="#F74CC3"/>
<path d="M20.0078 11.3464V11.9883H20.649H21.2901V11.3464V10.7045H20.649H20.0078V11.3464Z" fill="#F74CC3"/>
<path d="M22.6875 11.3464V11.9883H23.3287H23.9698V11.3464V10.7045H23.3287H22.6875V11.3464Z" fill="#F74CC3"/>
<path d="M6.70635 12.2934C6.68886 12.4334 6.69469 12.7193 6.70635 12.9352L6.73549 13.332H7.365H8.00034V12.6902V12.0483H7.365H6.72966L6.70635 12.2934Z" fill="#F74CC3"/>
<path d="M12.0234 12.6902V13.332H15.987H19.9506V12.6902V12.0483H15.987H12.0234V12.6902Z" fill="#F74CC3"/>
<path d="M24.0312 12.6902V13.332H24.6724H25.3136V12.6902V12.0483H24.6724H24.0312V12.6902Z" fill="#F74CC3"/>
<path d="M5.375 13.9989V14.6758H6.01617H6.65733V14.0339V13.392H6.28429C6.08028 13.392 5.79467 13.3745 5.64312 13.357L5.375 13.3162V13.9989Z" fill="#F74CC3"/>
<path d="M25.3305 13.4093C25.313 13.4385 25.3188 13.7361 25.3421 14.0687L25.3829 14.6755H26.0183H26.6478L26.6653 15.3291L26.6828 15.9884L27.3123 16.0059L27.9359 16.0234L27.9476 15.5683C27.9534 15.3174 27.9593 15.0198 27.9593 14.9089L27.9651 14.7047L27.3123 14.6872L26.6594 14.6697L26.642 14.0453L26.6245 13.421L25.995 13.3918C25.6452 13.3743 25.348 13.3859 25.3305 13.4093Z" fill="#F74CC3"/>
<path d="M4.03906 15.3446V16.0156H4.68023H5.32139V15.3446V14.6735H4.68023H4.03906V15.3446Z" fill="#F74CC3"/>
<path d="M2.70499 16.6395L2.72247 17.2697L3.35198 17.2872L3.97566 17.3047V16.657V16.0151H3.33449H2.6875L2.70499 16.6395Z" fill="#F74CC3"/>
<path d="M27.9922 16.6589V17.3008H28.6334H29.2745V16.6589V16.017H28.6334H27.9922V16.6589Z" fill="#F74CC3"/>
<path d="M1.36905 18.0126L1.38654 18.672L2.01021 18.6895L2.63389 18.707L2.65138 18.0302L2.66887 17.3591H2.01021H1.35156L1.36905 18.0126Z" fill="#F74CC3"/>
<path d="M29.3456 18.0106L29.3631 18.67L29.9926 18.6758L30.6163 18.6875V18.0223V17.3571H29.9751H29.3281L29.3456 18.0106Z" fill="#F74CC3"/>
<path d="M2.69531 19.3425V19.9844H15.9849H29.2745V19.3425V18.7006H15.9849H2.69531V19.3425Z" fill="#F74CC3"/>
</g>
<defs>
<clipPath id="clip0_2681_5185">
<rect width="32" height="20" fill="white"/>
</clipPath>
</defs>
</svg>
