<svg width="24" height="22" viewBox="0 0 24 22" fill="none" xmlns="http://www.w3.org/2000/svg">
<g filter="url(#filter0_d_2080_1424)">
<path d="M21.1527 3.92471C21.1384 3.46571 21.1226 3.00678 21.1053 2.54778C21.0995 2.39575 20.9713 2.26866 20.8191 2.26407C20.3597 2.25039 19.9004 2.23782 19.441 2.22628C19.4263 1.7646 19.4103 1.30293 19.3929 0.841315C19.3871 0.688354 19.2599 0.560549 19.1089 0.55612C17.6506 0.513135 16.1923 0.483331 14.7339 0.466815C14.5829 0.465065 14.4621 0.589206 14.464 0.743753C14.4697 1.21029 14.4751 1.67678 14.48 2.14332C14.0206 2.13949 13.5613 2.1367 13.102 2.135C12.9498 2.13446 12.8269 2.25958 12.8274 2.41435C12.8289 2.88138 12.8304 3.34846 12.8317 3.81549C12.2769 3.81429 11.7222 3.81429 11.1675 3.81549C11.1688 3.34846 11.1702 2.88138 11.1718 2.41435C11.1723 2.25958 11.0494 2.13446 10.8972 2.135C10.4378 2.1367 9.97847 2.13949 9.51915 2.14332C9.52407 1.67678 9.52938 1.21029 9.53517 0.743753C9.53703 0.589151 9.41623 0.465065 9.26524 0.466815C7.80689 0.483331 6.34859 0.513135 4.89024 0.55612C4.7393 0.560604 4.61204 0.688409 4.60624 0.841315C4.58891 1.30299 4.57289 1.76466 4.55817 2.22628C4.0988 2.23782 3.63948 2.25039 3.1801 2.26407C3.02791 2.2686 2.89972 2.3957 2.89387 2.54778C2.87648 3.00678 2.86067 3.46571 2.84651 3.92471C2.38424 3.93581 1.92196 3.94778 1.45969 3.96058C1.30651 3.96485 1.17783 4.09085 1.17247 4.24178C1.11149 5.97357 1.07742 7.70531 1.07032 9.4371C1.06966 9.58809 1.19489 9.71026 1.34966 9.70999C1.81674 9.70911 2.28383 9.70835 2.75097 9.70758C2.75004 10.1666 2.75064 10.6255 2.75289 11.0845C2.75365 11.2365 2.87981 11.3605 3.03458 11.3612C3.5015 11.3634 3.96842 11.3654 4.43535 11.3672C4.4377 11.8289 4.44131 12.2905 4.44617 12.7521C4.44781 12.9051 4.57447 13.0303 4.72891 13.0317C5.19501 13.0358 5.66106 13.0394 6.1271 13.0428C6.13131 13.5066 6.13656 13.9704 6.1428 14.4342C6.14482 14.5879 6.27142 14.7139 6.42537 14.7155C6.88989 14.7205 7.3544 14.7248 7.81892 14.7285C7.82367 15.1939 7.82914 15.6594 7.83527 16.1248C7.83735 16.279 7.96324 16.4054 8.11642 16.407C8.57869 16.4117 9.04096 16.4156 9.50324 16.4187C9.50712 16.8852 9.51144 17.3517 9.51614 17.8182C9.51773 17.9728 9.64247 18.0992 9.79467 18.1003C10.254 18.1037 10.7134 18.106 11.1727 18.1074C11.1744 18.5744 11.1761 19.0415 11.1781 19.5085C11.1788 19.6633 11.3017 19.7892 11.4527 19.7895C11.8173 19.7903 12.1818 19.7903 12.5464 19.7895C12.6974 19.7892 12.8204 19.6633 12.821 19.5085C12.8229 19.0415 12.8247 18.5744 12.8264 18.1074C13.2857 18.1061 13.7451 18.1038 14.2044 18.1003C14.3566 18.0992 14.4813 17.9728 14.483 17.8182C14.4877 17.3517 14.492 16.8852 14.4959 16.4187C14.9581 16.4157 15.4204 16.4118 15.8827 16.407C16.0359 16.4054 16.1617 16.279 16.1638 16.1248C16.1688 15.7525 16.1733 15.3802 16.1773 15.0078C16.179 14.8536 16.305 14.7275 16.4589 14.7262C16.8305 14.723 17.2022 14.7195 17.5738 14.7155C17.7277 14.7139 17.8542 14.5879 17.8564 14.4342C17.8626 13.9704 17.8678 13.5066 17.8721 13.0428C18.3382 13.0395 18.8042 13.0358 19.2703 13.0317C19.4247 13.0303 19.5514 12.9051 19.553 12.7521C19.5579 12.2905 19.5615 11.8288 19.5638 11.3672C20.0307 11.3654 20.4977 11.3634 20.9646 11.3612C21.1193 11.3605 21.2456 11.2366 21.2463 11.0845C21.2485 10.6256 21.2491 10.1666 21.2482 9.70758C21.7153 9.70835 22.1824 9.70911 22.6495 9.70999C22.8043 9.71026 22.9295 9.58803 22.9289 9.4371C22.9217 7.70531 22.8877 5.97357 22.8267 4.24178C22.8213 4.09079 22.6925 3.96485 22.5395 3.96058C22.0772 3.94784 21.6149 3.93586 21.1527 3.92471Z" fill="white"/>
<path d="M11.9986 5.49748C11.7199 5.49748 11.4412 5.4977 11.1625 5.49813C11.1636 4.93764 11.1649 4.3772 11.1665 3.81671C10.6118 3.81791 10.0571 3.82038 9.50232 3.82398C9.50697 3.26415 9.51222 2.70437 9.51813 2.14453C7.86448 2.15837 6.21084 2.18604 4.5572 2.22755C4.53954 2.78153 4.52368 3.33552 4.50973 3.88955C3.95498 3.90049 3.40029 3.91263 2.84554 3.92598C2.78582 5.85366 2.75399 7.78128 2.75 9.70896C3.31055 9.70809 3.87104 9.70727 4.43159 9.70656C4.43066 10.2605 4.43159 10.8145 4.43437 11.3686C4.9947 11.3708 5.55503 11.3727 6.1153 11.3744C6.11749 11.931 6.1211 12.4876 6.12613 13.0442C6.68542 13.0482 7.24471 13.0516 7.804 13.0544C7.80761 13.6129 7.81226 14.1714 7.81795 14.7299C8.37537 14.7344 8.9328 14.7379 9.49018 14.7406C9.49362 15.3004 9.49762 15.8602 9.50227 16.42C10.057 16.4237 10.6117 16.4261 11.1665 16.4273C11.168 16.9878 11.1698 17.5483 11.1718 18.1087C11.723 18.1103 12.2742 18.1103 12.8254 18.1087C12.8274 17.5483 12.8291 16.9878 12.8307 16.4273C13.3855 16.4261 13.9402 16.4237 14.4949 16.42C14.4996 15.8602 14.5036 15.3004 14.507 14.7406C15.0644 14.7379 15.6219 14.7344 16.1792 14.7299C16.1849 14.1714 16.1896 13.6129 16.1932 13.0544C16.7525 13.0515 17.3117 13.0481 17.871 13.0442C17.8761 12.4876 17.8797 11.931 17.8819 11.3744C15.9284 9.43219 13.9496 7.45939 11.9986 5.49748Z" fill="#2DC500"/>
<path d="M19.4889 3.88955C19.4749 3.33557 19.459 2.78159 19.4414 2.22755C17.7877 2.18604 16.1341 2.15837 14.4805 2.14453C14.4864 2.70437 14.4916 3.26415 14.4963 3.82398C13.9416 3.82032 13.3868 3.81791 12.8321 3.81671C12.8336 4.3772 12.835 4.93764 12.8361 5.49813C12.5574 5.49769 12.2787 5.49748 12 5.49748C11.9984 8.75012 14.6344 11.3874 17.8833 11.3743C18.4436 11.3726 19.0039 11.3706 19.5642 11.3685C19.567 10.8145 19.5679 10.2605 19.567 9.70645C20.1275 9.70716 20.688 9.70798 21.2486 9.70885C21.2446 7.78123 21.2128 5.85355 21.153 3.92587C20.5983 3.91258 20.0435 3.90044 19.4889 3.88955Z" fill="#2DC500"/>
</g>
<defs>
<filter id="filter0_d_2080_1424" x="0.0703125" y="0.466797" width="23.8594" height="21.3242" filterUnits="userSpaceOnUse" color-interpolation-filters="sRGB">
<feFlood flood-opacity="0" result="BackgroundImageFix"/>
<feColorMatrix in="SourceAlpha" type="matrix" values="0 0 0 0 0 0 0 0 0 0 0 0 0 0 0 0 0 0 127 0" result="hardAlpha"/>
<feOffset dy="1"/>
<feGaussianBlur stdDeviation="0.5"/>
<feComposite in2="hardAlpha" operator="out"/>
<feColorMatrix type="matrix" values="0 0 0 0 0 0 0 0 0 0 0 0 0 0 0 0 0 0 0.25 0"/>
<feBlend mode="normal" in2="BackgroundImageFix" result="effect1_dropShadow_2080_1424"/>
<feBlend mode="normal" in="SourceGraphic" in2="effect1_dropShadow_2080_1424" result="shape"/>
</filter>
</defs>
</svg>
