<svg width="20" height="20" viewBox="0 0 20 20" fill="none" xmlns="http://www.w3.org/2000/svg">
<path d="M0 1.13281V2.26562H1.07422H2.14844V3.35938V4.45312H3.24219H4.33594V5.54688V6.64062H5.42969H6.52344V7.71484V8.78906H7.57812H8.63281V9.84375V10.8984H7.57812H6.52344V11.9922V13.0859L5.44141 13.0938L4.35547 13.1055L4.34375 14.168L4.33594 15.2344H3.24219H2.14844V16.3281V17.4219H1.07422H0V18.5547V19.6875L1.125 19.6797L2.24609 19.668L2.25781 18.5859L2.26562 17.5H3.33984H4.41406V16.4258V15.3516H5.50781H6.60156V14.2578V13.1641H7.67578H8.75V12.0703V10.9766H9.76562H10.7812V12.0703V13.1641H11.8555H12.9297V14.2578V15.3516H14.0234H15.1172V16.4258V17.5H16.1914H17.2656L17.2734 18.5859L17.2852 19.668L18.4062 19.6797L19.5312 19.6875V18.5547V17.4219H18.457H17.3828V16.3281V15.2344H16.2891H15.1953L15.1875 14.168L15.1758 13.1055L14.0938 13.0938L13.0078 13.0859V11.9922V10.8984H11.9531H10.8984V9.84375V8.78906H11.9531H13.0078V7.71484V6.64062H14.1016H15.1953V5.54688V4.45312H16.2891H17.3828V3.35938V2.26562H18.457H19.5312V1.13281V0L18.4102 0.0078125L17.2852 0.0195312L17.2734 1.10156L17.2656 2.1875H16.1914H15.1172V3.28125V4.375H14.0234H12.9297V5.46875V6.5625H11.8555H10.7812V7.63672V8.71094H9.76562H8.75V7.63672V6.5625H7.67578H6.60156V5.46875V4.375H5.50781H4.41406V3.28125V2.1875H3.33984H2.26562L2.25781 1.10156L2.24609 0.0195312L1.125 0.0078125L0 0V1.13281Z" fill="#FDFEFD"/>
</svg>
